<svg width="222" height="28" viewBox="0 0 222 28" fill="none" xmlns="http://www.w3.org/2000/svg">
    <path d="M214.045 1.912h-25.998v25.11h25.998V1.913z" fill="#1A2C61"/>
    <path d="M214.045 12.37h-15.166v14.653h15.166V12.37z" fill="#0090CD"/>
    <g opacity=".92">
        <mask id="9h86io4qfa" style="mask-type:luminance" maskUnits="userSpaceOnUse" x="188" y="1" width="22" height="22">
            <path d="M209.317 1.89h-21.281v20.504h21.281V1.89z" fill="#fff"/>
        </mask>
        <g mask="url(#9h86io4qfa)">
            <mask id="yz7zpzokbb" style="mask-type:luminance" maskUnits="userSpaceOnUse" x="188" y="1" width="22" height="22">
                <path d="M209.317 1.89h-21.281v20.504h21.281V1.89z" fill="#fff"/>
            </mask>
            <g mask="url(#yz7zpzokbb)">
                <path d="M202.934 1.89c.013.184.026.408.026.526 0 7.628-6.436 13.85-14.341 13.85-.119 0-.358-.014-.583-.014v6.13c.212.012.45.012.583.012 11.4 0 20.698-8.957 20.698-19.965 0-.131-.014-.355-.014-.526h-6.369V1.89z" fill="#F3FAFE"/>
            </g>
        </g>
    </g>
    <path d="M214.071 6.518c-.265-.013-.57-.013-.702-.013-11.414 0-20.698 8.957-20.698 19.978 0 .105.013.329.013.553h6.343c0-.224-.013-.448-.013-.553 0-7.628 6.436-13.85 14.341-13.85.133 0 .438.014.703.027V6.518h.013z" fill="#fff"/>
    <path d="m196.14 20.92.132.302a1.449 1.449 0 0 0-.861 1.027c-.067.264-.053.514.013.764.079.25.199.461.384.632.186.171.411.29.676.356.411.092.769.04 1.112-.172.331-.21.557-.526.649-.934.106-.461.027-.883-.265-1.275l.265-.211c.173.21.292.46.345.724.053.277.053.553-.026.856-.133.566-.438.974-.902 1.21a1.79 1.79 0 0 1-1.284.13 1.695 1.695 0 0 1-1.098-.79c-.249-.407-.318-.868-.199-1.38.08-.302.199-.566.385-.776.199-.198.424-.356.676-.461" fill="#008DD1"/>
    <path d="m196.14 20.92.132.302a1.449 1.449 0 0 0-.861 1.027c-.067.264-.053.514.013.764.079.25.199.461.384.632.186.171.411.29.676.356.411.092.769.04 1.112-.172.331-.21.557-.526.649-.934.106-.461.027-.883-.265-1.275l.265-.211c.173.21.292.46.345.724.053.277.053.553-.026.856-.133.566-.438.974-.902 1.21a1.79 1.79 0 0 1-1.284.13 1.695 1.695 0 0 1-1.098-.79c-.249-.407-.318-.868-.199-1.38.08-.302.199-.566.385-.776.199-.198.424-.356.676-.461l-.002-.002z" stroke="#0090CD" stroke-width=".29"/>
    <path d="m196.842 17.738 3.747.131-.159.33-1.244-.027-.649 1.288.769.975-.173.329-2.331-2.934.04-.092zm.623.355.835 1.065.517-1.025-1.349-.04h-.003z" fill="#008DD1"/>
    <path d="m196.842 17.738 3.747.131-.159.33-1.244-.027-.649 1.288.769.975-.173.329-2.331-2.934.04-.092zm.623.355.835 1.065.517-1.025-1.349-.04h-.003z" stroke="#0090CD" stroke-width=".29"/>
    <path d="m198.656 14.817.438-.5c.252-.277.424-.461.53-.54a.917.917 0 0 1 .543-.171c.199 0 .385.079.544.223a.785.785 0 0 1 .278.422.766.766 0 0 1 0 .487c-.053.171-.172.356-.358.566l1.987.119-.279.316-1.986-.119-.119.145 1.191 1.025-.226.25-2.543-2.223zm.477-.04.875.751.385-.434c.146-.172.238-.303.278-.422a.537.537 0 0 0-.172-.606.496.496 0 0 0-.292-.131.489.489 0 0 0-.305.053 1.513 1.513 0 0 0-.371.329l-.398.46z" fill="#008DD1"/>
    <path d="m198.656 14.817.438-.5c.252-.277.424-.461.53-.54a.917.917 0 0 1 .543-.171c.199 0 .385.079.544.223a.785.785 0 0 1 .278.422.766.766 0 0 1 0 .487c-.053.171-.172.356-.358.566l1.987.119-.279.316-1.986-.119-.119.145 1.191 1.025-.226.25-2.543-2.223zm.477-.04.875.751.385-.434c.146-.172.238-.303.278-.422a.537.537 0 0 0-.172-.606.496.496 0 0 0-.292-.131.489.489 0 0 0-.305.053 1.513 1.513 0 0 0-.371.329l-.398.46z" stroke="#0090CD" stroke-width=".29"/>
    <path d="m203.504 14.646-1.867-2.827.066-.04 3.31.934-1.443-2.158.278-.184 1.881 2.829-.067.04-3.285-.922 1.418 2.13-.291.198z" fill="#008DD1"/>
    <path d="m203.504 14.646-1.867-2.827.066-.04 3.31.934-1.443-2.158.278-.184 1.881 2.829-.067.04-3.285-.922 1.418 2.13-.291.198z" stroke="#0090CD" stroke-width=".29"/>
    <path d="M207.437 8.833c.49-.145.954-.105 1.376.118.424.224.716.58.862 1.065.146.474.106.921-.133 1.354-.225.434-.583.71-1.058.856-.475.144-.941.105-1.363-.132a1.732 1.732 0 0 1-.862-1.038 1.867 1.867 0 0 1-.04-.935 1.73 1.73 0 0 1 .424-.816c.239-.224.504-.382.796-.474m.119.316a1.26 1.26 0 0 0-.623.395 1.38 1.38 0 0 0-.345.658c-.053.25-.039.5.04.764.119.381.345.671.703.855a1.36 1.36 0 0 0 1.085.106 1.45 1.45 0 0 0 .636-.395c.172-.184.291-.408.345-.645.053-.25.039-.5-.04-.764a1.407 1.407 0 0 0-.398-.645 1.338 1.338 0 0 0-.663-.342 1.293 1.293 0 0 0-.742.013" fill="#008DD1"/>
    <path d="M207.437 8.833c.49-.145.954-.105 1.376.118.424.224.716.58.862 1.065.146.474.106.921-.133 1.354-.225.434-.583.71-1.058.856-.475.144-.941.105-1.363-.132a1.732 1.732 0 0 1-.862-1.038 1.867 1.867 0 0 1-.04-.935 1.73 1.73 0 0 1 .424-.816c.239-.224.504-.382.796-.474l-.002.002zm.119.316a1.26 1.26 0 0 0-.623.395 1.371 1.371 0 0 0-.345.658c-.053.25-.04.5.04.764.119.382.345.671.702.856a1.36 1.36 0 0 0 1.085.105c.252-.079.464-.21.637-.395.172-.184.291-.408.344-.645.053-.25.04-.5-.039-.764a1.416 1.416 0 0 0-.398-.645 1.337 1.337 0 0 0-.663-.342 1.293 1.293 0 0 0-.742.013h.002z" stroke="#0090CD" stroke-width=".29"/>
    <path d="m210.68 8.53-.04-.327 1.841-.197.039.327-.753.079.331 3.039-.344.04-.332-3.04-.742.08z" fill="#008DD1"/>
    <path d="m210.68 8.53-.04-.327 1.841-.197.039.327-.753.079.331 3.039-.344.04-.332-3.04-.742.08z" stroke="#0090CD" stroke-width=".29"/>
    <g clip-path="url(#7t8gsrmhbc)">
        <path d="M65.558 27.603c-2.46 0-4.67-.588-6.62-1.763a12.521 12.521 0 0 1-4.588-4.765c-1.103-2-1.654-4.192-1.654-6.575s.551-4.55 1.654-6.55a12.6 12.6 0 0 1 4.587-4.776C60.891 1.99 63.097 1.4 65.558 1.4c2.16 0 4.109.429 5.85 1.287a12.19 12.19 0 0 1 4.336 3.537c1.152 1.5 1.942 3.204 2.37 5.109h-7.05c-.46-1.174-1.171-2.052-2.132-2.633-.961-.579-2.077-.87-3.347-.87-1.049 0-2.032.267-2.954.799-.921.532-1.66 1.3-2.216 2.3-.556 1-.833 2.19-.833 3.573s.282 2.577.846 3.585c.563 1.007 1.301 1.78 2.216 2.311.912.532 1.895.8 2.941.8.841 0 1.62-.13 2.334-.393a4.774 4.774 0 0 0 1.883-1.275c.54-.588.96-1.333 1.262-2.238h7.029c-.398 2-1.167 3.78-2.312 5.337a12.005 12.005 0 0 1-4.347 3.657c-1.755.883-3.711 1.322-5.87 1.322l-.006-.005zM82.674 2.184h17.7v5.312H89.536v4.621h9.17v4.503h-9.17v4.884h11.004v5.312H82.674V2.184zM110.944 8.092h-6.479V2.184h19.82v5.908h-6.479v18.724h-6.862V8.092zM128.393 2.184h6.862v24.632h-6.862V2.184zM141.697 2.184h6.146l7.504 11.434.046-.025 7.529-11.411h6.121v24.632h-6.408V11.902h-.025l-6.145 9.528h-2.238l-6.075-9.553h-.025v14.937h-6.432V2.184h.002z" fill="#001E50"/>
        <path d="M29.471 18.601h-8.21v8.21h8.21v-8.21z" fill="#EF3346"/>
        <path d="M.735 10.391v16.42h8.21v-8.21h12.316v-8.21H.735z" fill="#001E50"/>
        <path d="M40.63 2.182H21.26v8.21h16.42v16.42h8.21V7.44a5.261 5.261 0 0 0-5.261-5.26v.002z" fill="#001E50"/>
    </g>
    <defs>
        <clipPath id="7t8gsrmhbc">
            <path fill="#fff" transform="translate(0 1)" d="M0 0h169.781v27H0z"/>
        </clipPath>
    </defs>
</svg>
